<svg width="144" height="29" viewBox="0 0 144 29" fill="none" xmlns="http://www.w3.org/2000/svg">
<g clip-path="url(#paint0_diamond_773_253_clip_path)" data-figma-skip-parse="true"><g transform="matrix(2.67138e-08 -0.0316707 -0.526428 -6.34223e-07 81.4999 29.439)"><rect x="0" y="0" width="1276.86" height="210.855" fill="url(#paint0_diamond_773_253)" opacity="1" shape-rendering="crispEdges"/><rect x="0" y="0" width="1276.86" height="210.855" transform="scale(1 -1)" fill="url(#paint0_diamond_773_253)" opacity="1" shape-rendering="crispEdges"/><rect x="0" y="0" width="1276.86" height="210.855" transform="scale(-1 1)" fill="url(#paint0_diamond_773_253)" opacity="1" shape-rendering="crispEdges"/><rect x="0" y="0" width="1276.86" height="210.855" transform="scale(-1)" fill="url(#paint0_diamond_773_253)" opacity="1" shape-rendering="crispEdges"/></g></g><path d="M0.04 2.8H10.624C14.248 2.8 16.948 3.328 18.724 4.384C20.5 5.416 21.388 7.276 21.388 9.964C21.388 12.94 20.308 14.992 18.148 16.12C16.132 17.152 13.312 17.668 9.688 17.668H9.4V27.316H13.9V28H0.04V27.316H2.38V3.484H0.04V2.8ZM9.4 3.484V16.984H10.156C11.596 16.984 12.592 16.492 13.144 15.508C13.696 14.524 13.972 12.928 13.972 10.72V8.992C13.972 6.952 13.708 5.524 13.18 4.708C12.676 3.892 11.74 3.484 10.372 3.484H9.4ZM31.0546 28.36C27.9586 28.36 25.6306 27.568 24.0706 25.984C22.5346 24.376 21.7666 22.156 21.7666 19.324C21.7666 16.468 22.6306 14.284 24.3586 12.772C26.1106 11.26 28.3306 10.504 31.0186 10.504C36.4666 10.504 39.0826 13.24 38.8666 18.712H28.7146V20.116C28.7146 22.468 29.0146 24.244 29.6146 25.444C30.2146 26.644 31.2586 27.244 32.7466 27.244C35.5306 27.244 37.3546 25.756 38.2186 22.78L38.8666 22.888C38.4106 24.616 37.5826 25.96 36.3826 26.92C35.2066 27.88 33.4306 28.36 31.0546 28.36ZM28.7506 17.992H32.4586V16.228C32.4586 14.284 32.3386 12.964 32.0986 12.268C31.8826 11.548 31.4266 11.188 30.7306 11.188C30.0586 11.188 29.5546 11.572 29.2186 12.34C28.9066 13.084 28.7506 14.38 28.7506 16.228V17.992ZM52.1731 11.872C51.2851 11.872 50.5051 12.448 49.8331 13.6C49.1611 14.752 48.8251 16.12 48.8251 17.704V27.352H51.3811V28H40.1491V27.352H42.1291V11.512H40.1491V10.864H48.8251V14.32C49.1371 13.096 49.7371 12.16 50.6251 11.512C51.5131 10.84 52.5211 10.504 53.6491 10.504C54.7771 10.504 55.6891 10.828 56.3851 11.476C57.1051 12.1 57.4651 13 57.4651 14.176C57.4651 15.328 57.2011 16.216 56.6731 16.84C56.1451 17.464 55.3291 17.776 54.2251 17.776C53.1451 17.776 52.3411 17.416 51.8131 16.696C51.3091 15.976 51.2491 14.98 51.6331 13.708H52.9291C53.5291 12.484 53.2771 11.872 52.1731 11.872ZM68.8813 0.783998C67.9693 0.783998 67.3693 1.132 67.0813 1.828C66.7933 2.5 66.6493 3.592 66.6493 5.104V10.864H71.4013V11.512H66.6493V27.352H71.0413V28H57.9733V27.352H59.9533V11.512H57.8653V10.864H59.9533V10.72C59.9533 7.264 60.6133 4.648 61.9333 2.872C63.2533 1.072 65.4613 0.171998 68.5573 0.171998C70.5973 0.171998 72.0613 0.579998 72.9493 1.396C73.8373 2.188 74.2813 3.112 74.2813 4.168C74.2813 5.224 74.0053 6.016 73.4533 6.544C72.9013 7.072 72.1693 7.336 71.2573 7.336C70.3453 7.336 69.6373 7.108 69.1333 6.652C68.6533 6.172 68.4133 5.632 68.4133 5.032C68.4133 4.408 68.4853 3.808 68.6293 3.232H69.9973C70.4773 1.6 70.1053 0.783998 68.8813 0.783998ZM92.8145 28H84.6065L84.2105 25.372C83.8265 26.332 83.2505 27.076 82.4825 27.604C81.7385 28.108 80.6225 28.36 79.1345 28.36C75.4145 28.36 73.5545 26.356 73.5545 22.348V11.512H71.5385V10.864H80.2505V23.212C80.2505 24.652 80.3465 25.6 80.5385 26.056C80.7545 26.512 81.1625 26.74 81.7625 26.74C82.3865 26.74 82.9385 26.368 83.4185 25.624C83.8985 24.88 84.1385 23.848 84.1385 22.528V11.512H82.4825V10.864H90.8345V27.352H92.8145V28ZM93.5514 10.864H102.227V14.176C103.019 11.728 104.759 10.504 107.447 10.504C110.159 10.504 111.803 11.8 112.379 14.392C113.219 11.8 114.983 10.504 117.671 10.504C121.199 10.504 122.963 12.508 122.963 16.516V27.352H124.979V28H115.007V27.352H116.267V15.652C116.267 13.828 116.111 12.76 115.799 12.448C115.655 12.304 115.463 12.232 115.223 12.232C114.527 12.232 113.915 12.7 113.387 13.636C112.859 14.572 112.595 15.76 112.595 17.2V27.352H113.891V28H104.639V27.352H105.899V15.652C105.899 13.828 105.743 12.76 105.431 12.448C105.287 12.304 105.095 12.232 104.855 12.232C104.183 12.232 103.571 12.748 103.019 13.78C102.491 14.788 102.227 16 102.227 17.416V27.352H103.523V28H93.5514V27.352H95.5314V11.512H93.5514V10.864ZM134.976 28.36C131.88 28.36 129.552 27.568 127.992 25.984C126.456 24.376 125.688 22.156 125.688 19.324C125.688 16.468 126.552 14.284 128.28 12.772C130.032 11.26 132.252 10.504 134.94 10.504C140.388 10.504 143.004 13.24 142.788 18.712H132.636V20.116C132.636 22.468 132.936 24.244 133.536 25.444C134.136 26.644 135.18 27.244 136.668 27.244C139.452 27.244 141.276 25.756 142.14 22.78L142.788 22.888C142.332 24.616 141.504 25.96 140.304 26.92C139.128 27.88 137.352 28.36 134.976 28.36ZM136.38 17.992V16.228C136.38 14.284 136.26 12.964 136.02 12.268C135.804 11.548 135.348 11.188 134.652 11.188C133.98 11.188 133.476 11.572 133.14 12.34C132.828 13.084 132.672 14.38 132.672 16.228V17.992H136.38ZM132.276 8.308L134.544 1.432L136.236 1.072C136.98 0.903998 137.544 0.999999 137.928 1.36C138.336 1.696 138.54 2.164 138.54 2.764C138.54 3.34 138.192 3.94 137.496 4.564L132.672 8.56L132.276 8.308Z" data-figma-gradient-fill="{&#34;type&#34;:&#34;GRADIENT_DIAMOND&#34;,&#34;stops&#34;:[{&#34;color&#34;:{&#34;r&#34;:0.67058825492858887,&#34;g&#34;:0.34117648005485535,&#34;b&#34;:0.17647059261798859,&#34;a&#34;:1.0},&#34;position&#34;:0.0},{&#34;color&#34;:{&#34;r&#34;:0.925781250,&#34;g&#34;:0.60574328899383545,&#34;b&#34;:0.32170906662940979,&#34;a&#34;:1.0},&#34;position&#34;:0.44062486290931702},{&#34;color&#34;:{&#34;r&#34;:0.64661461114883423,&#34;g&#34;:0.27804082632064819,&#34;b&#34;:0.057656534016132355,&#34;a&#34;:1.0},&#34;position&#34;:0.99989998340606689},{&#34;color&#34;:{&#34;r&#34;:0.67161458730697632,&#34;g&#34;:0.34458318352699280,&#34;b&#34;:0.16062788665294647,&#34;a&#34;:1.0},&#34;position&#34;:1.0}],&#34;stopsVar&#34;:[],&#34;transform&#34;:{&#34;m00&#34;:5.3427691454999149e-05,&#34;m01&#34;:-1052.8568115234375,&#34;m02&#34;:607.92834472656250,&#34;m10&#34;:-63.341484069824219,&#34;m11&#34;:-0.0012684458633884788,&#34;m12&#34;:61.110408782958984},&#34;opacity&#34;:1.0,&#34;blendMode&#34;:&#34;NORMAL&#34;,&#34;visible&#34;:true}"/>
<defs>
<clipPath id="paint0_diamond_773_253_clip_path"><path d="M0.04 2.8H10.624C14.248 2.8 16.948 3.328 18.724 4.384C20.5 5.416 21.388 7.276 21.388 9.964C21.388 12.94 20.308 14.992 18.148 16.12C16.132 17.152 13.312 17.668 9.688 17.668H9.4V27.316H13.9V28H0.04V27.316H2.38V3.484H0.04V2.8ZM9.4 3.484V16.984H10.156C11.596 16.984 12.592 16.492 13.144 15.508C13.696 14.524 13.972 12.928 13.972 10.72V8.992C13.972 6.952 13.708 5.524 13.18 4.708C12.676 3.892 11.74 3.484 10.372 3.484H9.4ZM31.0546 28.36C27.9586 28.36 25.6306 27.568 24.0706 25.984C22.5346 24.376 21.7666 22.156 21.7666 19.324C21.7666 16.468 22.6306 14.284 24.3586 12.772C26.1106 11.26 28.3306 10.504 31.0186 10.504C36.4666 10.504 39.0826 13.24 38.8666 18.712H28.7146V20.116C28.7146 22.468 29.0146 24.244 29.6146 25.444C30.2146 26.644 31.2586 27.244 32.7466 27.244C35.5306 27.244 37.3546 25.756 38.2186 22.78L38.8666 22.888C38.4106 24.616 37.5826 25.96 36.3826 26.92C35.2066 27.88 33.4306 28.36 31.0546 28.36ZM28.7506 17.992H32.4586V16.228C32.4586 14.284 32.3386 12.964 32.0986 12.268C31.8826 11.548 31.4266 11.188 30.7306 11.188C30.0586 11.188 29.5546 11.572 29.2186 12.34C28.9066 13.084 28.7506 14.38 28.7506 16.228V17.992ZM52.1731 11.872C51.2851 11.872 50.5051 12.448 49.8331 13.6C49.1611 14.752 48.8251 16.12 48.8251 17.704V27.352H51.3811V28H40.1491V27.352H42.1291V11.512H40.1491V10.864H48.8251V14.32C49.1371 13.096 49.7371 12.16 50.6251 11.512C51.5131 10.84 52.5211 10.504 53.6491 10.504C54.7771 10.504 55.6891 10.828 56.3851 11.476C57.1051 12.1 57.4651 13 57.4651 14.176C57.4651 15.328 57.2011 16.216 56.6731 16.84C56.1451 17.464 55.3291 17.776 54.2251 17.776C53.1451 17.776 52.3411 17.416 51.8131 16.696C51.3091 15.976 51.2491 14.98 51.6331 13.708H52.9291C53.5291 12.484 53.2771 11.872 52.1731 11.872ZM68.8813 0.783998C67.9693 0.783998 67.3693 1.132 67.0813 1.828C66.7933 2.5 66.6493 3.592 66.6493 5.104V10.864H71.4013V11.512H66.6493V27.352H71.0413V28H57.9733V27.352H59.9533V11.512H57.8653V10.864H59.9533V10.72C59.9533 7.264 60.6133 4.648 61.9333 2.872C63.2533 1.072 65.4613 0.171998 68.5573 0.171998C70.5973 0.171998 72.0613 0.579998 72.9493 1.396C73.8373 2.188 74.2813 3.112 74.2813 4.168C74.2813 5.224 74.0053 6.016 73.4533 6.544C72.9013 7.072 72.1693 7.336 71.2573 7.336C70.3453 7.336 69.6373 7.108 69.1333 6.652C68.6533 6.172 68.4133 5.632 68.4133 5.032C68.4133 4.408 68.4853 3.808 68.6293 3.232H69.9973C70.4773 1.6 70.1053 0.783998 68.8813 0.783998ZM92.8145 28H84.6065L84.2105 25.372C83.8265 26.332 83.2505 27.076 82.4825 27.604C81.7385 28.108 80.6225 28.36 79.1345 28.36C75.4145 28.36 73.5545 26.356 73.5545 22.348V11.512H71.5385V10.864H80.2505V23.212C80.2505 24.652 80.3465 25.6 80.5385 26.056C80.7545 26.512 81.1625 26.74 81.7625 26.74C82.3865 26.74 82.9385 26.368 83.4185 25.624C83.8985 24.88 84.1385 23.848 84.1385 22.528V11.512H82.4825V10.864H90.8345V27.352H92.8145V28ZM93.5514 10.864H102.227V14.176C103.019 11.728 104.759 10.504 107.447 10.504C110.159 10.504 111.803 11.8 112.379 14.392C113.219 11.8 114.983 10.504 117.671 10.504C121.199 10.504 122.963 12.508 122.963 16.516V27.352H124.979V28H115.007V27.352H116.267V15.652C116.267 13.828 116.111 12.76 115.799 12.448C115.655 12.304 115.463 12.232 115.223 12.232C114.527 12.232 113.915 12.7 113.387 13.636C112.859 14.572 112.595 15.76 112.595 17.2V27.352H113.891V28H104.639V27.352H105.899V15.652C105.899 13.828 105.743 12.76 105.431 12.448C105.287 12.304 105.095 12.232 104.855 12.232C104.183 12.232 103.571 12.748 103.019 13.78C102.491 14.788 102.227 16 102.227 17.416V27.352H103.523V28H93.5514V27.352H95.5314V11.512H93.5514V10.864ZM134.976 28.36C131.88 28.36 129.552 27.568 127.992 25.984C126.456 24.376 125.688 22.156 125.688 19.324C125.688 16.468 126.552 14.284 128.28 12.772C130.032 11.26 132.252 10.504 134.94 10.504C140.388 10.504 143.004 13.24 142.788 18.712H132.636V20.116C132.636 22.468 132.936 24.244 133.536 25.444C134.136 26.644 135.18 27.244 136.668 27.244C139.452 27.244 141.276 25.756 142.14 22.78L142.788 22.888C142.332 24.616 141.504 25.96 140.304 26.92C139.128 27.88 137.352 28.36 134.976 28.36ZM136.38 17.992V16.228C136.38 14.284 136.26 12.964 136.02 12.268C135.804 11.548 135.348 11.188 134.652 11.188C133.98 11.188 133.476 11.572 133.14 12.34C132.828 13.084 132.672 14.38 132.672 16.228V17.992H136.38ZM132.276 8.308L134.544 1.432L136.236 1.072C136.98 0.903998 137.544 0.999999 137.928 1.36C138.336 1.696 138.54 2.164 138.54 2.764C138.54 3.34 138.192 3.94 137.496 4.564L132.672 8.56L132.276 8.308Z"/></clipPath><linearGradient id="paint0_diamond_773_253" x1="0" y1="0" x2="500" y2="500" gradientUnits="userSpaceOnUse">
<stop stop-color="#AB572D"/>
<stop offset="0.440625" stop-color="#EC9A52"/>
<stop offset="0.9999" stop-color="#A5470F"/>
<stop offset="1" stop-color="#AB5829"/>
</linearGradient>
</defs>
</svg>
